<?xml version="1.0" encoding="UTF-8"?>
<svg version="1.1" xmlns="http://www.w3.org/2000/svg" width="512" height="512">
<path d="M0 0 C0.96838806 0.00215515 1.93677612 0.0043103 2.93450928 0.00653076 C17.25143438 0.05761097 31.24098845 0.44399783 45.3125 3.3125 C46.33859375 3.51649414 47.3646875 3.72048828 48.421875 3.93066406 C93.05493007 13.01327924 134.10503836 32.05912667 168.3125 62.3125 C169.56546875 63.39917969 169.56546875 63.39917969 170.84375 64.5078125 C181.91897413 74.2525714 192.26364912 84.65212414 201.3125 96.3125 C202.075625 97.24707031 202.83875 98.18164062 203.625 99.14453125 C211.46588144 108.93306753 217.93436966 119.53001208 224.3125 130.3125 C224.89644531 131.28993164 224.89644531 131.28993164 225.4921875 132.28710938 C247.32539728 169.26403044 256.79127437 213.36624954 256.625 255.9375 C256.62226578 257.39233292 256.62226578 257.39233292 256.61947632 258.8765564 C256.57408309 273.22806055 256.0687347 287.19192918 253.3125 301.3125 C253.15152832 302.20952637 252.99055664 303.10655273 252.82470703 304.03076172 C242.00212011 363.84088904 207.94435543 421.35495829 159.3125 458.3125 C158.77222168 458.72918945 158.23194336 459.14587891 157.67529297 459.57519531 C147.6802884 467.2584873 137.22040964 474.00092968 126.3125 480.3125 C125.63525879 480.70679199 124.95801758 481.10108398 124.26025391 481.50732422 C101.3416244 494.68961173 75.76677437 503.29510918 49.9375 508.625 C49.22682373 508.77243652 48.51614746 508.91987305 47.78393555 509.07177734 C32.14141634 512.05713787 16.50580394 512.6873098 0.625 512.625 C-0.34239105 512.62317719 -1.3097821 512.62135437 -2.30648804 512.61947632 C-16.63940977 512.57404826 -30.58523917 512.06516072 -44.6875 509.3125 C-45.58452637 509.15152832 -46.48155273 508.99055664 -47.40576172 508.82470703 C-107.21588904 498.00212011 -164.72995829 463.94435543 -201.6875 415.3125 C-202.10418945 414.77222168 -202.52087891 414.23194336 -202.95019531 413.67529297 C-210.6334873 403.6802884 -217.37592968 393.22040964 -223.6875 382.3125 C-224.08179199 381.63525879 -224.47608398 380.95801758 -224.88232422 380.26025391 C-238.06461173 357.3416244 -246.67010918 331.76677437 -252 305.9375 C-252.14743652 305.22682373 -252.29487305 304.51614746 -252.44677734 303.78393555 C-255.43213787 288.14141634 -256.0623098 272.50580394 -256 256.625 C-255.99817719 255.65760895 -255.99635437 254.6902179 -255.99447632 253.69351196 C-255.94904826 239.36059023 -255.44016072 225.41476083 -252.6875 211.3125 C-252.44604248 209.96696045 -252.44604248 209.96696045 -252.19970703 208.59423828 C-241.37712011 148.78411096 -207.31935543 91.27004171 -158.6875 54.3125 C-158.14722168 53.89581055 -157.60694336 53.47912109 -157.05029297 53.04980469 C-147.0552884 45.3665127 -136.59540964 38.62407032 -125.6875 32.3125 C-125.01025879 31.91820801 -124.33301758 31.52391602 -123.63525391 31.11767578 C-100.7166244 17.93538827 -75.14177437 9.32989082 -49.3125 4 C-48.60182373 3.85256348 -47.89114746 3.70512695 -47.15893555 3.55322266 C-31.51685465 0.56794578 -15.88048677 -0.0638264 0 0 Z M-42.6875 21.3125 C-43.6657373 21.50585938 -44.64397461 21.69921875 -45.65185547 21.8984375 C-90.07126411 30.98279186 -131.50364428 51.66667772 -163.90673828 83.5625 C-165.7033347 85.32806116 -167.52002449 87.07091596 -169.33984375 88.8125 C-176.70405173 95.93139991 -183.31439779 103.36378569 -189.41259766 111.59326172 C-190.6502098 113.26221322 -191.90803819 114.91427553 -193.16796875 116.56640625 C-223.10483879 156.47034618 -238.22087362 206.34782878 -238 255.9375 C-237.99784485 256.81334747 -237.9956897 257.68919495 -237.99346924 258.59158325 C-237.93929164 272.35316295 -237.40192791 285.78215871 -234.6875 299.3125 C-234.49414062 300.2907373 -234.30078125 301.26897461 -234.1015625 302.27685547 C-225.01720814 346.69626411 -204.33332228 388.12864428 -172.4375 420.53173828 C-170.67193884 422.3283347 -168.92908404 424.14502449 -167.1875 425.96484375 C-160.06860009 433.32905173 -152.63621431 439.93939779 -144.40673828 446.03759766 C-142.73778678 447.2752098 -141.08572447 448.53303819 -139.43359375 449.79296875 C-99.50294801 479.74987411 -49.61767105 494.84029815 0 494.625 C0.87646179 494.62317719 1.75292358 494.62135437 2.65594482 494.61947632 C16.08537209 494.57255448 29.11618719 493.98330753 42.3125 491.3125 C43.18326172 491.14621094 44.05402344 490.97992188 44.95117188 490.80859375 C80.8629466 483.84794825 115.65403961 469.25658461 144.3125 446.3125 C145.14523437 445.67054688 145.97796875 445.02859375 146.8359375 444.3671875 C153.66479889 439.04627658 160.04153473 433.27030363 166.3125 427.3125 C166.84810547 426.80557617 167.38371094 426.29865234 167.93554688 425.77636719 C175.67931808 418.39630462 182.57553904 410.66637131 188.97412109 402.09521484 C190.30315497 400.32494753 191.65861651 398.57786106 193.01953125 396.83203125 C223.6282004 357.03089467 238.84711592 306.55608678 238.625 256.6875 C238.62284485 255.81165253 238.6206897 254.93580505 238.61846924 254.03341675 C238.56429164 240.27183705 238.02692791 226.84284129 235.3125 213.3125 C235.11914062 212.3342627 234.92578125 211.35602539 234.7265625 210.34814453 C225.64220814 165.92873589 204.95832228 124.49635572 173.0625 92.09326172 C171.29693884 90.2966653 169.55408404 88.47997551 167.8125 86.66015625 C160.69360009 79.29594827 153.26121431 72.68560221 145.03173828 66.58740234 C143.36278678 65.3497902 141.71072447 64.09196181 140.05859375 62.83203125 C100.15465382 32.89516121 50.27717122 17.77912638 0.6875 18 C-0.18834747 18.00215515 -1.06419495 18.0043103 -1.96658325 18.00653076 C-15.72816295 18.06070836 -29.15715871 18.59807209 -42.6875 21.3125 Z " fill="#000000" transform="translate(255.6875,-0.3125)"/>
<path d="M0 0 C1.10202759 -0.00287018 1.10202759 -0.00287018 2.22631836 -0.00579834 C3.74821322 -0.00713277 5.27012058 -0.0036339 6.79199219 0.00488281 C9.06212032 0.0156232 11.33145764 0.00489149 13.6015625 -0.0078125 C15.10937667 -0.00649042 16.61719037 -0.00392702 18.125 0 C20.09146484 0.00338379 20.09146484 0.00338379 22.09765625 0.00683594 C29.44790503 0.3899626 36.75268599 1.40564688 44.0625 2.265625 C44.0625 32.625625 44.0625 62.985625 44.0625 94.265625 C20.9625 94.265625 -2.1375 94.265625 -25.9375 94.265625 C-25.9375 63.905625 -25.9375 33.545625 -25.9375 2.265625 C-6.77883716 0.01166467 -6.77883716 0.01166467 0 0 Z M-7.9375 18.265625 C-7.9375 37.405625 -7.9375 56.545625 -7.9375 76.265625 C3.2825 76.265625 14.5025 76.265625 26.0625 76.265625 C26.0625 57.125625 26.0625 37.985625 26.0625 18.265625 C14.8425 18.265625 3.6225 18.265625 -7.9375 18.265625 Z " fill="#000000" transform="translate(246.9375,33.734375)"/>
<path d="M0 0 C27.72 0 55.44 0 84 0 C86.25396033 19.15866284 86.25396033 19.15866284 86.265625 25.9375 C86.26753845 26.67218506 86.2694519 27.40687012 86.27142334 28.16381836 C86.27275777 29.68571322 86.2692589 31.20762058 86.26074219 32.72949219 C86.2500018 34.99962032 86.26073351 37.26895764 86.2734375 39.5390625 C86.27211542 41.04687667 86.26955202 42.55469037 86.265625 44.0625 C86.26336914 45.37347656 86.26111328 46.68445313 86.25878906 48.03515625 C85.8756624 55.38540503 84.85997812 62.69018599 84 70 C56.28 70 28.56 70 0 70 C0 46.9 0 23.8 0 0 Z M18 18 C18 29.22 18 40.44 18 52 C34.5 52 51 52 68 52 C68 40.78 68 29.56 68 18 C51.5 18 35 18 18 18 Z " fill="#000000" transform="translate(392,221)"/>
<path d="M0 0 C27.72 0 55.44 0 84 0 C84 23.1 84 46.2 84 70 C56.28 70 28.56 70 0 70 C-2.25396033 50.84133716 -2.25396033 50.84133716 -2.265625 44.0625 C-2.26753845 43.32781494 -2.2694519 42.59312988 -2.27142334 41.83618164 C-2.27275777 40.31428678 -2.2692589 38.79237942 -2.26074219 37.27050781 C-2.2500018 35.00037968 -2.26073351 32.73104236 -2.2734375 30.4609375 C-2.27211542 28.95312333 -2.26955202 27.44530963 -2.265625 25.9375 C-2.26224121 23.97103516 -2.26224121 23.97103516 -2.25878906 21.96484375 C-1.8756624 14.61459497 -0.85997812 7.30981401 0 0 Z M16 18 C16 29.22 16 40.44 16 52 C32.5 52 49 52 66 52 C66 40.78 66 29.56 66 18 C49.5 18 33 18 16 18 Z " fill="#000000" transform="translate(36,221)"/>
<path d="M0 0 C23.1 0 46.2 0 70 0 C70 27.72 70 55.44 70 84 C50.84133716 86.25396033 50.84133716 86.25396033 44.0625 86.265625 C43.32781494 86.26753845 42.59312988 86.2694519 41.83618164 86.27142334 C40.31428678 86.27275777 38.79237942 86.2692589 37.27050781 86.26074219 C35.00037968 86.2500018 32.73104236 86.26073351 30.4609375 86.2734375 C28.95312333 86.27211542 27.44530963 86.26955202 25.9375 86.265625 C23.97103516 86.26224121 23.97103516 86.26224121 21.96484375 86.25878906 C14.61459497 85.8756624 7.30981401 84.85997812 0 84 C0 56.28 0 28.56 0 0 Z M18 18 C18 34.5 18 51 18 68 C29.22 68 40.44 68 52 68 C52 51.5 52 35 52 18 C40.78 18 29.56 18 18 18 Z " fill="#000000" transform="translate(221,392)"/>
<path d="M0 0 C0 29.37 0 58.74 0 89 C-22.77 89 -45.54 89 -69 89 C-69 69.2 -69 49.4 -69 29 C-16.8 0 -16.8 0 0 0 Z M-29.4375 29.125 C-30.71657227 29.69347656 -30.71657227 29.69347656 -32.02148438 30.2734375 C-38.574088 33.22727835 -44.64735984 36.53492355 -51 40 C-51 50.23 -51 60.46 -51 71 C-40.11 71 -29.22 71 -18 71 C-18 55.82 -18 40.64 -18 25 C-22.01447356 25 -25.83307703 27.49162314 -29.4375 29.125 Z " fill="#000000" transform="translate(205,39)"/>
<path d="M0 0 C24.5198927 7.00568363 24.5198927 7.00568363 31.875 10.125 C32.75647705 10.49117432 33.6379541 10.85734863 34.54614258 11.23461914 C46.29935496 16.24101869 58.35294835 21.90196556 69 29 C69.36076355 31.51834106 69.36076355 31.51834106 69.34057617 34.73486328 C69.34021362 35.95278564 69.33985107 37.17070801 69.33947754 38.42553711 C69.32412964 39.71081299 69.30878174 40.99608887 69.29296875 42.3203125 C69.28994751 43.49779053 69.28692627 44.67526855 69.28381348 45.88842773 C69.26807862 50.30070723 69.22619495 54.71286212 69.1875 59.125 C69.125625 68.98375 69.06375 78.8425 69 89 C46.23 89 23.46 89 0 89 C0 59.63 0 30.26 0 0 Z M18 25 C18 40.18 18 55.36 18 71 C28.89 71 39.78 71 51 71 C51 60.77 51 50.54 51 40 C35.36482279 30.21360421 35.36482279 30.21360421 18 25 Z " fill="#000000" transform="translate(307,39)"/>
<path d="M0 0 C23.1 0 46.2 0 70 0 C70 23.1 70 46.2 70 70 C46.9 70 23.8 70 0 70 C0 46.9 0 23.8 0 0 Z M18 18 C18 29.22 18 40.44 18 52 C29.22 52 40.44 52 52 52 C52 40.78 52 29.56 52 18 C40.78 18 29.56 18 18 18 Z " fill="#000000" transform="translate(221,221)"/>
<path d="M0 0 C23.1 0 46.2 0 70 0 C70 22.77 70 45.54 70 69 C46.9 69 23.8 69 0 69 C0 46.23 0 23.46 0 0 Z M18 18 C18 28.89 18 39.78 18 51 C29.22 51 40.44 51 52 51 C52 40.11 52 29.22 52 18 C40.78 18 29.56 18 18 18 Z " fill="#000000" transform="translate(221,307)"/>
<path d="M0 0 C22.77 0 45.54 0 69 0 C69 23.1 69 46.2 69 70 C46.23 70 23.46 70 0 70 C0 46.9 0 23.8 0 0 Z M18 18 C18 29.22 18 40.44 18 52 C28.89 52 39.78 52 51 52 C51 40.78 51 29.56 51 18 C40.11 18 29.22 18 18 18 Z " fill="#000000" transform="translate(307,221)"/>
<path d="M0 0 C22.77 0 45.54 0 69 0 C69 23.1 69 46.2 69 70 C46.23 70 23.46 70 0 70 C0 46.9 0 23.8 0 0 Z M18 18 C18 29.22 18 40.44 18 52 C28.89 52 39.78 52 51 52 C51 40.78 51 29.56 51 18 C40.11 18 29.22 18 18 18 Z " fill="#000000" transform="translate(136,221)"/>
<path d="M0 0 C26.73 0 53.46 0 81 0 C73.96001389 23.75995312 65.92752375 48.10871437 52 69 C49.78536987 69.36076355 49.78536987 69.36076355 46.99951172 69.34057617 C45.94401123 69.34021362 44.88851074 69.33985107 43.80102539 69.33947754 C42.68848389 69.32412964 41.57594238 69.30878174 40.4296875 69.29296875 C39.4094751 69.28994751 38.3892627 69.28692627 37.33813477 69.28381348 C33.51698735 69.26808451 29.69598381 69.22620073 25.875 69.1875 C17.33625 69.125625 8.7975 69.06375 0 69 C0 46.23 0 23.46 0 0 Z M18 18 C18 28.89 18 39.78 18 51 C25.59 51 33.18 51 41 51 C50.78639579 35.36482279 50.78639579 35.36482279 56 18 C43.46 18 30.92 18 18 18 Z " fill="#000000" transform="translate(392,307)"/>
<path d="M0 0 C26.73 0 53.46 0 81 0 C81 22.77 81 45.54 81 69 C63.84 69 46.68 69 29 69 C16.35251702 46.23453063 6.2890117 25.15604679 0 0 Z M25 18 C27.53016555 25.6344968 27.53016555 25.6344968 30.6640625 32.875 C31.14617187 33.87917969 31.62828125 34.88335937 32.125 35.91796875 C32.62 36.93503906 33.115 37.95210938 33.625 39 C34.12773438 40.04800781 34.63046875 41.09601563 35.1484375 42.17578125 C37.12046856 46.88744512 37.12046856 46.88744512 40 51 C41.70772358 51.08713831 43.41898649 51.10700007 45.12890625 51.09765625 C46.52604858 51.09390991 46.52604858 51.09390991 47.95141602 51.09008789 C49.14307373 51.08098389 50.33473145 51.07187988 51.5625 51.0625 C55.336875 51.041875 59.11125 51.02125 63 51 C63 40.11 63 29.22 63 18 C50.46 18 37.92 18 25 18 Z " fill="#000000" transform="translate(39,307)"/>
<path d="M0 0 C22.77 0 45.54 0 69 0 C69 26.73 69 53.46 69 81 C44.4801073 73.99431637 44.4801073 73.99431637 37.125 70.875 C36.24352295 70.50882568 35.3620459 70.14265137 34.45385742 69.76538086 C22.70064504 64.75898131 10.64705165 59.09803444 0 52 C-0.36076355 49.78536987 -0.36076355 49.78536987 -0.34057617 46.99951172 C-0.34021362 45.94401123 -0.33985107 44.88851074 -0.33947754 43.80102539 C-0.32412964 42.68848389 -0.30878174 41.57594238 -0.29296875 40.4296875 C-0.28994751 39.4094751 -0.28692627 38.3892627 -0.28381348 37.33813477 C-0.26808451 33.51698735 -0.22620073 29.69598381 -0.1875 25.875 C-0.125625 17.33625 -0.06375 8.7975 0 0 Z M18 18 C18 25.59 18 33.18 18 41 C33.63517721 50.78639579 33.63517721 50.78639579 51 56 C51 43.46 51 30.92 51 18 C40.11 18 29.22 18 18 18 Z " fill="#000000" transform="translate(136,392)"/>
<path d="M0 0 C22.77 0 45.54 0 69 0 C69 22.77 69 45.54 69 69 C46.23 69 23.46 69 0 69 C0 46.23 0 23.46 0 0 Z M18 18 C18 28.89 18 39.78 18 51 C28.89 51 39.78 51 51 51 C51 40.11 51 29.22 51 18 C40.11 18 29.22 18 18 18 Z " fill="#000000" transform="translate(307,307)"/>
<path d="M0 0 C22.77 0 45.54 0 69 0 C69 22.77 69 45.54 69 69 C46.23 69 23.46 69 0 69 C0 46.23 0 23.46 0 0 Z M18 18 C18 28.89 18 39.78 18 51 C28.89 51 39.78 51 51 51 C51 40.11 51 29.22 51 18 C40.11 18 29.22 18 18 18 Z " fill="#000000" transform="translate(136,307)"/>
<path d="M0 0 C22.77 0 45.54 0 69 0 C69.33 7.87875 69.66 15.7575 70 23.875 C70.14566406 26.34210449 70.29132813 28.80920898 70.44140625 31.35107422 C70.95991514 46.39234609 70.95991514 46.39234609 67.50280762 50.99200439 C63.80358463 54.26236182 59.65833285 56.26411824 55.10783386 58.09432983 C51.62027682 59.59282382 48.47188133 61.63273745 45.25 63.625 C39.38030397 66.96634115 33.31999756 69.71674228 27.0625 72.25 C26.31323242 72.55502441 25.56396484 72.86004883 24.79199219 73.17431641 C16.64380668 76.34953564 8.47341074 78.50782037 0 81 C0 54.27 0 27.54 0 0 Z M18 18 C18 30.54 18 43.08 18 56 C28.48476618 51.64034257 28.48476618 51.64034257 38.4375 46.4375 C39.10458984 46.06431641 39.77167969 45.69113281 40.45898438 45.30664062 C42.33136288 44.24173693 44.1637908 43.12567948 46 42 C46.97453125 41.45988281 47.9490625 40.91976562 48.953125 40.36328125 C52.2426223 36.56529295 51.53071693 32.58089799 51.3125 27.75 C51.1578125 22.92375 51.1578125 22.92375 51 18 C40.11 18 29.22 18 18 18 Z " fill="#000000" transform="translate(307,392)"/>
<path d="M0 0 C18.81 0 37.62 0 57 0 C67.84476603 20.60505545 74.56066136 37.46231477 81 60 C54.27 60 27.54 60 0 60 C0 40.2 0 20.4 0 0 Z M18 18 C18 25.92 18 33.84 18 42 C30.54 42 43.08 42 56 42 C54.00992211 36.02976634 52.01779743 30.54726973 49.3125 24.9375 C48.219375 22.648125 47.12625 20.35875 46 18 C36.76 18 27.52 18 18 18 Z " fill="#000000" transform="translate(392,145)"/>
<path d="M0 0 C18.81 0 37.62 0 57 0 C57 19.8 57 39.6 57 60 C30.27 60 3.54 60 -24 60 C-17.52258178 37.79170895 -10.72478909 20.10897954 0 0 Z M11 18 C9.906875 20.289375 8.81375 22.57875 7.6875 24.9375 C7.34936279 25.63866943 7.01122559 26.33983887 6.6628418 27.06225586 C4.32461663 32.01847637 2.76401131 36.70796607 1 42 C13.54 42 26.08 42 39 42 C39 34.08 39 26.16 39 18 C29.76 18 20.52 18 11 18 Z " fill="#000000" transform="translate(63,145)"/>
<path d="M0 0 C23.1 0 46.2 0 70 0 C70 19.8 70 39.6 70 60 C46.9 60 23.8 60 0 60 C0 40.2 0 20.4 0 0 Z M18 18 C18 25.92 18 33.84 18 42 C29.22 42 40.44 42 52 42 C52 34.08 52 26.16 52 18 C40.78 18 29.56 18 18 18 Z " fill="#000000" transform="translate(221,145)"/>
<path d="M0 0 C22.77 0 45.54 0 69 0 C69 19.8 69 39.6 69 60 C46.23 60 23.46 60 0 60 C0 40.2 0 20.4 0 0 Z M18 18 C18 25.92 18 33.84 18 42 C28.89 42 39.78 42 51 42 C51 34.08 51 26.16 51 18 C40.11 18 29.22 18 18 18 Z " fill="#000000" transform="translate(307,145)"/>
<path d="M0 0 C22.77 0 45.54 0 69 0 C69 19.8 69 39.6 69 60 C46.23 60 23.46 60 0 60 C0 40.2 0 20.4 0 0 Z M18 18 C18 25.92 18 33.84 18 42 C28.89 42 39.78 42 51 42 C51 34.08 51 26.16 51 18 C40.11 18 29.22 18 18 18 Z " fill="#000000" transform="translate(136,145)"/>
<path d="M0 0 C3.271508 1.635754 4.99144452 2.71404929 7.5390625 5.125 C8.19704834 5.74407227 8.85503418 6.36314453 9.53295898 7.00097656 C10.22333252 7.6606543 10.91370605 8.32033203 11.625 9 C12.33922119 9.67772461 13.05344238 10.35544922 13.78930664 11.05371094 C15.86549441 13.02969161 17.93390753 15.01347263 20 17 C20.78044678 17.74540039 20.78044678 17.74540039 21.57666016 18.50585938 C27.09402725 23.79097791 32.05181051 29.33798626 36.81640625 35.30859375 C39.61424256 38.75708966 42.57325597 42.04126677 45.56640625 45.3203125 C47 47 47 47 47 48 C31.49 48 15.98 48 0 48 C0 32.16 0 16.32 0 0 Z " fill="#000000" transform="translate(392,80)"/>
<path d="M0 0 C0.66 0 1.32 0 2 0 C2 15.84 2 31.68 2 48 C-13.51 48 -29.02 48 -45 48 C-41.38222237 43.17629649 -38.10155998 38.84673554 -34.0625 34.5 C-31.21525895 31.41619292 -28.40213345 28.32583646 -25.6875 25.125 C-18.14616904 16.45783054 -9.77947605 8.39843487 -1 1 C-0.67 0.67 -0.34 0.34 0 0 Z " fill="#000000" transform="translate(118,80)"/>
<path d="M0 0 C13.2 0 26.4 0 40 0 C38.37790377 3.24419246 37.32936997 4.94637322 34.9453125 7.46875 C34.0318103 8.44050171 34.0318103 8.44050171 33.09985352 9.43188477 C32.44815186 10.11436279 31.7964502 10.79684082 31.125 11.5 C30.45460693 12.20761475 29.78421387 12.91522949 29.09350586 13.64428711 C5.89775062 38.03408313 5.89775062 38.03408313 0 40 C0 26.8 0 13.6 0 0 Z " fill="#000000" transform="translate(392,392)"/>
<path d="M0 0 C13.2 0 26.4 0 40 0 C40 13.2 40 26.4 40 40 C36.75580754 38.37790377 35.05362678 37.32936997 32.53125 34.9453125 C31.55949829 34.0318103 31.55949829 34.0318103 30.56811523 33.09985352 C29.54439819 32.12230103 29.54439819 32.12230103 28.5 31.125 C27.79238525 30.45460693 27.08477051 29.78421387 26.35571289 29.09350586 C1.96591687 5.89775062 1.96591687 5.89775062 0 0 Z " fill="#000000" transform="translate(80,392)"/>
</svg>
